<svg width="300" height="300" viewBox="0 0 300 300" fill="none" xmlns="http://www.w3.org/2000/svg">
<g clip-path="url(#clip0_1528_528)">
<rect width="300" height="300" fill="#B6FF79"/>
<line x1="20.5" y1="2.18557e-08" x2="20.5" y2="300" stroke="#FF00FF"/>
<line x1="30.5" y1="2.18557e-08" x2="30.5" y2="300" stroke="#FF00FF"/>
<line x1="40.5" y1="2.18557e-08" x2="40.5" y2="300" stroke="#FF00FF"/>
<line x1="50.5" y1="2.18557e-08" x2="50.5" y2="300" stroke="#FF00FF"/>
<line x1="60.5" y1="2.18557e-08" x2="60.5" y2="300" stroke="#FF00FF"/>
<line x1="70.5" y1="2.18557e-08" x2="70.5" y2="300" stroke="#FF00FF"/>
<line x1="80.5" y1="2.18557e-08" x2="80.5" y2="300" stroke="#FF00FF"/>
<line x1="90.5" y1="2.18557e-08" x2="90.5" y2="300" stroke="#FF00FF"/>
<line x1="100.5" y1="2.18557e-08" x2="100.5" y2="300" stroke="#FF00FF"/>
<line x1="110.5" y1="2.18557e-08" x2="110.5" y2="300" stroke="#FF00FF"/>
<line x1="120.5" y1="2.18557e-08" x2="120.5" y2="300" stroke="#FF00FF"/>
<line x1="130.5" y1="2.18557e-08" x2="130.5" y2="300" stroke="#FF00FF"/>
<line x1="140.5" y1="2.18557e-08" x2="140.5" y2="300" stroke="#FF00FF"/>
<line x1="150.5" y1="2.18557e-08" x2="150.5" y2="300" stroke="#FF00FF"/>
<line x1="10.5" y1="2.18557e-08" x2="10.5" y2="300" stroke="#FF00FF"/>
<line x1="170.5" y1="2.18557e-08" x2="170.5" y2="300" stroke="#FF00FF"/>
<line x1="180.5" y1="2.18557e-08" x2="180.5" y2="300" stroke="#FF00FF"/>
<line x1="190.5" y1="2.18557e-08" x2="190.5" y2="300" stroke="#FF00FF"/>
<line x1="200.5" y1="2.18557e-08" x2="200.5" y2="300" stroke="#FF00FF"/>
<line x1="210.5" y1="2.18557e-08" x2="210.5" y2="300" stroke="#FF00FF"/>
<line x1="220.5" y1="2.18557e-08" x2="220.5" y2="300" stroke="#FF00FF"/>
<line x1="230.5" y1="2.18557e-08" x2="230.5" y2="300" stroke="#FF00FF"/>
<line x1="240.5" y1="2.18557e-08" x2="240.5" y2="300" stroke="#FF00FF"/>
<line x1="250.5" y1="2.18557e-08" x2="250.5" y2="300" stroke="#FF00FF"/>
<line x1="260.5" y1="2.18557e-08" x2="260.5" y2="300" stroke="#FF00FF"/>
<line x1="270.5" y1="2.18557e-08" x2="270.5" y2="300" stroke="#FF00FF"/>
<line x1="280.5" y1="2.18557e-08" x2="280.5" y2="300" stroke="#FF00FF"/>
<line x1="290.5" y1="2.18557e-08" x2="290.5" y2="300" stroke="#FF00FF"/>
<line x1="160.5" y1="2.18557e-08" x2="160.5" y2="300" stroke="#FF00FF"/>
<line y1="279.5" x2="300" y2="279.5" stroke="#FF00FF"/>
<line y1="269.5" x2="300" y2="269.5" stroke="#FF00FF"/>
<line y1="259.5" x2="300" y2="259.5" stroke="#FF00FF"/>
<line y1="249.5" x2="300" y2="249.5" stroke="#FF00FF"/>
<line y1="239.5" x2="300" y2="239.5" stroke="#FF00FF"/>
<line y1="229.5" x2="300" y2="229.5" stroke="#FF00FF"/>
<line y1="219.5" x2="300" y2="219.5" stroke="#FF00FF"/>
<line y1="209.5" x2="300" y2="209.5" stroke="#FF00FF"/>
<line y1="199.5" x2="300" y2="199.5" stroke="#FF00FF"/>
<line y1="189.5" x2="300" y2="189.5" stroke="#FF00FF"/>
<line y1="179.5" x2="300" y2="179.5" stroke="#FF00FF"/>
<line y1="169.5" x2="300" y2="169.5" stroke="#FF00FF"/>
<line y1="159.5" x2="300" y2="159.5" stroke="#FF00FF"/>
<line y1="149.5" x2="300" y2="149.5" stroke="#FF00FF"/>
<line y1="289.5" x2="300" y2="289.5" stroke="#FF00FF"/>
<line y1="129.5" x2="300" y2="129.5" stroke="#FF00FF"/>
<line y1="119.5" x2="300" y2="119.5" stroke="#FF00FF"/>
<line y1="109.5" x2="300" y2="109.5" stroke="#FF00FF"/>
<line y1="99.5" x2="300" y2="99.5" stroke="#FF00FF"/>
<line y1="89.5" x2="300" y2="89.5" stroke="#FF00FF"/>
<line y1="79.5" x2="300" y2="79.5" stroke="#FF00FF"/>
<line y1="69.5" x2="300" y2="69.5" stroke="#FF00FF"/>
<line y1="59.5" x2="300" y2="59.5" stroke="#FF00FF"/>
<line y1="49.5" x2="300" y2="49.5" stroke="#FF00FF"/>
<line y1="39.5" x2="300" y2="39.5" stroke="#FF00FF"/>
<line y1="29.5" x2="300" y2="29.5" stroke="#FF00FF"/>
<line y1="19.5" x2="300" y2="19.5" stroke="#FF00FF"/>
<line y1="9.5" x2="300" y2="9.5" stroke="#FF00FF"/>
<line y1="139.5" x2="300" y2="139.5" stroke="#FF00FF"/>
</g>
<defs>
<clipPath id="clip0_1528_528">
<rect width="300" height="300" fill="white"/>
</clipPath>
</defs>
</svg>
