<svg width="300" height="300" viewBox="0 0 300 300" fill="none" xmlns="http://www.w3.org/2000/svg">
<g clip-path="url(#clip0_1542_298)">
<rect width="300" height="300" fill="#9900FF"/>
<path fill-rule="evenodd" clip-rule="evenodd" d="M2.32144e-08 474L2.07424e-05 -4.37105e-08L1 0L0.999979 474L2.32144e-08 474Z" fill="#FF00FF"/>
<path fill-rule="evenodd" clip-rule="evenodd" d="M16 474L16 -4.37105e-08L17 0L17 474L16 474Z" fill="#FF00FF"/>
<path fill-rule="evenodd" clip-rule="evenodd" d="M31 474L31 -8.74219e-08L33 0L33 474L31 474Z" fill="#FF00FF"/>
<path fill-rule="evenodd" clip-rule="evenodd" d="M47 474L47 -8.74219e-08L49 0L49 474L47 474Z" fill="#FF00FF"/>
<path fill-rule="evenodd" clip-rule="evenodd" d="M63 474L63 -8.74219e-08L65 0L65 474L63 474Z" fill="#FF00FF"/>
<path fill-rule="evenodd" clip-rule="evenodd" d="M95 474L95 -4.37105e-08L96 0L96 474L95 474Z" fill="#FF00FF"/>
<path fill-rule="evenodd" clip-rule="evenodd" d="M110 474L110 -8.74219e-08L112 0L112 474L110 474Z" fill="#FF00FF"/>
<path fill-rule="evenodd" clip-rule="evenodd" d="M126 474L126 -8.74219e-08L128 0L128 474L126 474Z" fill="#FF00FF"/>
<path fill-rule="evenodd" clip-rule="evenodd" d="M142 474L142 -8.74219e-08L144 0L144 474L142 474Z" fill="#FF00FF"/>
<path fill-rule="evenodd" clip-rule="evenodd" d="M158 474L158 -4.37105e-08L159 0L159 474L158 474Z" fill="#FF00FF"/>
<path fill-rule="evenodd" clip-rule="evenodd" d="M174 474L174 -4.37105e-08L175 0L175 474L174 474Z" fill="#FF00FF"/>
<path fill-rule="evenodd" clip-rule="evenodd" d="M189 474L189 -8.74219e-08L191 0L191 474L189 474Z" fill="#FF00FF"/>
<path fill-rule="evenodd" clip-rule="evenodd" d="M205 474L205 -8.74219e-08L207 0L207 474L205 474Z" fill="#FF00FF"/>
<path fill-rule="evenodd" clip-rule="evenodd" d="M221 474L221 -8.74219e-08L223 0L223 474L221 474Z" fill="#FF00FF"/>
<path fill-rule="evenodd" clip-rule="evenodd" d="M237 474L237 -4.37105e-08L238 0L238 474L237 474Z" fill="#FF00FF"/>
<path fill-rule="evenodd" clip-rule="evenodd" d="M253 474L253 -4.37105e-08L254 0L254 474L253 474Z" fill="#FF00FF"/>
<path fill-rule="evenodd" clip-rule="evenodd" d="M268 474L268 -8.74219e-08L270 0L270 474L268 474Z" fill="#FF00FF"/>
<path fill-rule="evenodd" clip-rule="evenodd" d="M284 474L284 -8.74219e-08L286 0L286 474L284 474Z" fill="#FF00FF"/>
<path fill-rule="evenodd" clip-rule="evenodd" d="M79 474L79 -4.37105e-08L80 0L80 474L79 474Z" fill="#FF00FF"/>
<path fill-rule="evenodd" clip-rule="evenodd" d="M300 300L-174 300V299L300 299V300Z" fill="#FF00FF"/>
<path fill-rule="evenodd" clip-rule="evenodd" d="M300 284L-174 284V283L300 283V284Z" fill="#FF00FF"/>
<path fill-rule="evenodd" clip-rule="evenodd" d="M300 269L-174 269V267L300 267V269Z" fill="#FF00FF"/>
<path fill-rule="evenodd" clip-rule="evenodd" d="M300 253L-174 253V251L300 251V253Z" fill="#FF00FF"/>
<path fill-rule="evenodd" clip-rule="evenodd" d="M300 237L-174 237V235L300 235V237Z" fill="#FF00FF"/>
<path fill-rule="evenodd" clip-rule="evenodd" d="M300 205L-174 205V204L300 204V205Z" fill="#FF00FF"/>
<path fill-rule="evenodd" clip-rule="evenodd" d="M300 190L-174 190V188L300 188V190Z" fill="#FF00FF"/>
<path fill-rule="evenodd" clip-rule="evenodd" d="M300 174L-174 174V172L300 172V174Z" fill="#FF00FF"/>
<path fill-rule="evenodd" clip-rule="evenodd" d="M300 158L-174 158V156L300 156V158Z" fill="#FF00FF"/>
<path fill-rule="evenodd" clip-rule="evenodd" d="M300 142L-174 142V141L300 141V142Z" fill="#FF00FF"/>
<path fill-rule="evenodd" clip-rule="evenodd" d="M300 126L-174 126V125L300 125V126Z" fill="#FF00FF"/>
<path fill-rule="evenodd" clip-rule="evenodd" d="M300 111L-174 111V109L300 109V111Z" fill="#FF00FF"/>
<path fill-rule="evenodd" clip-rule="evenodd" d="M300 95L-174 95V93L300 93V95Z" fill="#FF00FF"/>
<path fill-rule="evenodd" clip-rule="evenodd" d="M300 79L-174 79V77L300 77V79Z" fill="#FF00FF"/>
<path fill-rule="evenodd" clip-rule="evenodd" d="M300 63L-174 63V62L300 62V63Z" fill="#FF00FF"/>
<path fill-rule="evenodd" clip-rule="evenodd" d="M300 47L-174 47V46L300 46V47Z" fill="#FF00FF"/>
<path fill-rule="evenodd" clip-rule="evenodd" d="M300 32L-174 32V30L300 30V32Z" fill="#FF00FF"/>
<path fill-rule="evenodd" clip-rule="evenodd" d="M300 16L-174 16V14L300 14V16Z" fill="#FF00FF"/>
<path fill-rule="evenodd" clip-rule="evenodd" d="M300 221L-174 221V220L300 220V221Z" fill="#FF00FF"/>
</g>
<defs>
<clipPath id="clip0_1542_298">
<rect width="300" height="300" fill="white"/>
</clipPath>
</defs>
</svg>
