<svg width="869" height="827" viewBox="0 0 869 827" fill="none" xmlns="http://www.w3.org/2000/svg">
<path d="M853.536 696.592V665.636L834.764 680.459C832.833 672.999 831.604 660.793 831.604 642.991V227.922C831.604 163.293 825.809 112.719 813.368 77.3179C801.112 41.5513 780.438 16.3828 748.022 16.3828C716.032 16.3828 695.117 43.7793 681.381 81.1696C667.173 119.562 660.38 181.41 659.915 264.947L659.831 280.031H674.915H704.158H718.767L719.153 265.426C720.306 221.696 724.235 191.504 730.222 173.573L730.229 173.551L730.237 173.528C736.683 154.018 743.419 152.212 746.63 152.212C750.069 152.212 752.69 153.201 755.156 155.311C757.906 157.663 761.066 161.967 763.985 169.459C769.916 184.678 773.405 209.219 773.405 244.415V269.154C773.405 291.559 771.06 306.032 767.624 314.173L767.571 314.298L767.521 314.423C764.559 321.808 759.155 328.007 750.233 332.955C740.071 338.428 731.357 343.582 724.195 348.413C717.77 351.914 712.914 354.59 709.67 356.42L709.222 356.672L708.793 356.954C698.331 363.838 689.45 377.024 681.419 392.861C672.705 409.579 665.906 433.802 660.498 464.421C654.933 495.011 652.256 535.414 652.256 585.266C652.256 652.718 657.728 706.576 669.213 746.13L669.239 746.22L669.266 746.31C675.074 765.417 682.122 781.178 690.968 792.443C700.021 803.973 711.973 811.923 726.786 811.923C746.499 811.923 761.105 797.789 771.727 779.816L771.817 779.665L771.902 779.512C774.955 774.061 777.977 767.737 780.975 760.567C781.904 764.908 782.924 768.951 784.04 772.691C787.011 782.657 790.988 791.64 796.637 798.389C802.613 805.531 810.881 810.549 821.13 810.549C827.834 810.549 833.468 807.533 837.477 804.684C841.708 801.678 845.833 797.632 849.839 793.041L853.536 788.803V783.179V696.592ZM747.512 462.742L747.523 462.736L747.534 462.731C755.841 458.756 764.47 453.492 773.405 447.076V522.043C773.405 554.207 770.688 582.931 765.369 608.302C759.965 634.081 753.392 653.595 745.992 667.421C742.407 673.875 739.296 677.727 736.911 679.819C735.765 680.825 734.964 681.267 734.538 681.451C734.33 681.541 734.205 681.573 734.155 681.583C734.129 681.589 734.113 681.591 734.108 681.591C734.102 681.592 734.099 681.592 734.097 681.592C733.262 681.592 731.897 681.449 729.615 678.94C727.007 676.073 723.875 670.725 720.847 661.678C715.061 643.685 711.847 617.558 711.847 582.517C711.847 536.841 715.888 507.566 722.43 492.313C729.598 476.173 738.267 467.147 747.512 462.742Z" fill="white" stroke="white" stroke-width="30"/>
<path d="M630.607 53.3647L632.128 36.9785H615.671H585.732H572.016L570.792 50.6397L533.463 467.214L495.884 50.6309L494.652 36.9785H480.945H449.961H433.504L435.025 53.3647L501.866 773.55L503.13 787.164H516.802H548.83H562.502L563.766 773.55L630.607 53.3647Z" fill="white" stroke="white" stroke-width="30"/>
<path d="M378.004 752.591L378.011 752.572L378.018 752.553C390.917 717.001 400.134 669.815 405.995 611.513C412.091 552.267 415.123 486.237 415.123 413.457C415.123 339.775 412.092 273.735 405.993 215.385C400.14 157.166 390.933 110.413 378.011 75.716C371.655 57.8886 363.963 43.1371 354.382 32.6146C344.497 21.7578 332.145 15 317.616 15C303.15 15 290.866 21.8061 281.024 32.6146C271.463 43.1158 263.711 57.8472 257.237 75.6739C244.314 110.355 234.983 157.11 228.894 215.359L228.891 215.388L228.888 215.418C223.025 273.751 220.109 339.779 220.109 413.457C220.109 486.229 223.025 552.246 228.886 611.474L228.89 611.515L228.894 611.556C234.988 669.855 244.324 717.024 257.214 752.553L257.237 752.615L257.26 752.678C263.758 770.103 271.549 784.521 281.163 794.794C291.055 805.365 303.304 811.915 317.616 811.915C347.007 811.915 365.768 786.035 378.004 752.591ZM349.32 277.293L349.324 277.334C352.993 318.979 354.836 364.347 354.836 413.457C354.836 461.641 352.994 507.021 349.321 549.609L349.319 549.636L349.317 549.663C345.878 591.297 340.424 624.053 333.182 648.312C329.586 660.36 325.832 667.956 322.487 672.255C319.453 676.155 317.844 676.095 317.633 676.087C317.626 676.086 317.62 676.086 317.616 676.086C317.612 676.086 317.607 676.086 317.6 676.087C317.388 676.095 315.779 676.155 312.745 672.255C309.401 667.956 305.647 660.36 302.05 648.312C294.8 624.027 289.235 591.257 285.566 549.634C282.123 507.033 280.397 461.644 280.397 413.457C280.397 364.34 282.124 318.958 285.564 277.293C289.234 235.664 294.8 202.891 302.05 178.603C305.647 166.555 309.401 158.959 312.745 154.66C315.779 150.76 317.388 150.82 317.6 150.828C317.607 150.829 317.612 150.829 317.616 150.829C317.62 150.829 317.626 150.829 317.633 150.828C317.844 150.82 319.453 150.76 322.487 154.66C325.832 158.959 329.586 166.555 333.182 178.603C340.424 202.862 345.878 235.618 349.317 277.252L349.32 277.293Z" fill="white" stroke="white" stroke-width="30"/>
<path d="M15 772.184V787.184H30H58.8948H73.8948V772.184V366.736C73.8948 325.948 75.7318 287.988 79.3846 252.837C83.0383 217.677 88.4534 190.028 95.3866 169.499C98.8295 159.305 102.252 153.032 105.142 149.566C106.521 147.912 107.523 147.208 108.028 146.932C108.195 146.84 108.319 146.787 108.414 146.757C108.849 147.023 109.737 147.73 111.066 149.456C113.96 153.214 117.379 159.943 120.867 170.7C127.533 191.261 131.276 225.027 131.276 273.277V772.184V787.184H146.276H175.17H190.17V772.184V227.922C190.17 182.595 187.488 144.956 181.924 115.299C176.739 85.5662 169.417 61.7937 159.066 45.532C149.479 29.2721 135.934 16.3828 117.381 16.3828C96.0061 16.3828 81.6145 32.3543 71.8061 53.0644V51.9988V36.9988H56.8061H30H15V51.9988V772.184ZM108.678 146.714C108.674 146.714 108.67 146.714 108.667 146.714C108.667 146.714 108.668 146.714 108.669 146.714L108.678 146.714ZM108.27 146.676C108.158 146.651 108.102 146.623 108.102 146.614C108.102 146.606 108.159 146.619 108.27 146.676Z" fill="white" stroke="white" stroke-width="30"/>
</svg>
