<svg width="396" height="645" viewBox="0 0 396 645" fill="none" xmlns="http://www.w3.org/2000/svg">
<path d="M387.027 433.642L387.295 428.387H382.033H351.727H347.23L346.755 432.858C342.682 471.163 336.581 499.411 328.64 517.944C320.6 536.711 311.524 543.754 302.298 543.754C295.169 543.754 288.528 540.225 282.336 531.794C276.045 523.229 270.53 509.962 266.027 491.572C257.274 455.096 252.502 409.397 251.79 354.382H386.002H391.002V349.382C391.002 281.3 387.991 221.736 381.949 170.715C376.152 119.733 366.94 79.5985 354.145 50.5637C341.607 21.5683 324.454 5 301.938 5C281.658 5 265.23 20.3685 252.013 46.9513C238.678 73.0279 228.477 109.839 221.229 157.091C213.964 204.459 210.348 261.104 210.348 326.98C210.348 386.883 213.483 440.131 219.773 486.7L219.775 486.712L219.777 486.725C226.306 533.271 236.022 570.416 249.074 597.94L249.086 597.965L249.098 597.99C262.189 624.829 279.389 640 301.216 640C326.711 640 346.038 618.835 360.352 581.939C375.058 544.647 383.886 495.14 387.027 433.642ZM342.093 185.483L342.098 185.516L342.104 185.548C346.16 210.033 348.304 237.583 348.514 268.217H252.621C254.258 221.417 259.344 181.709 267.812 149.023C272.192 132.12 277.429 119.959 283.299 112.124C289.075 104.416 295.155 101.246 301.577 101.246C309.365 101.246 317.358 107.06 324.83 123.008L324.849 123.05L324.869 123.09C332.253 138.133 338.044 158.858 342.093 185.483Z" fill="white" stroke="white" stroke-width="10"/>
<path d="M5 614.848V619.848H10H40.3065H45.3065V614.848V330.349C45.3065 284.228 47.823 243.782 52.8308 208.983C58.0902 173.363 65.3354 145.901 74.4247 126.365L74.4392 126.334L74.4533 126.303C83.7236 105.641 93.4535 97.8941 102.723 97.8941C112.236 97.8941 120.618 104.584 126.864 122.539L126.874 122.566L126.883 122.593C133.379 140.596 137.791 166.922 139.946 201.849L140.235 206.541H144.936H174.882H180.028L179.88 201.397C178.189 142.929 171.548 96.0844 159.783 61.0741C148.32 26.2548 130.701 6.12891 105.61 6.12891C86.8859 6.12891 72.1067 22.4258 60.2611 49.4438C53.5259 64.8058 47.7048 82.4883 42.781 102.469V27.93V22.93H37.781H10H5V27.93V614.848Z" fill="white" stroke="white" stroke-width="10"/>
</svg>
